{
  "source": "C:\\Users\\Peter\\Desktop\\stuff\\MIUN\\quantitative_research\\video_compression\\videos\\BVI-HD\\BVI-HD_CDVL_videos\\ORIG\\MartialArts_1920x1080_60fps.mp4",
  "output": "C:\\Users\\Peter\\Desktop\\stuff\\MIUN\\quantitative_research\\video_compression\\compressed_videos\\BVI-HD\\hevc\\1\\MartialArts_1920x1080_60fps_hevc.mp4",
  "codec": "hevc",
  "ok": "Input #0, mov,mp4,m4a,3gp,3g2,mj2, from 'C:\\Users\\Peter\\Desktop\\stuff\\MIUN\\quantitative_research\\video_compression\\videos\\BVI-HD\\BVI-HD_CDVL_videos\\ORIG\\MartialArts_1920x1080_60fps.mp4':\n  Metadata:\n    major_brand     : isom\n    minor_version   : 512\n    compatible_brands: isomiso2avc1mp41\n    encoder         : Lavf54.28.101\n  Duration: 00:00:05.00, start: 0.000000, bitrate: 120609 kb/s\n  Stream #0:0[0x1](und): Video: h264 (High 4:4:4 Predictive) (avc1 / 0x31637661), yuv420p(progressive), 1920x1080, 120605 kb/s, 60 fps, 60 tbr, 60 tbn (default)\n    Metadata:\n      handler_name    : VideoHandler\n      vendor_id       : [0][0][0][0]\n[out#0/mp4 @ 000001ca2194abc0] Codec AVOption b:a (set bitrate (in bits/s)) has not been used for any stream. The most likely reason is either wrong type (e.g. a video option with no video streams) or that it is a private option of some decoder which was not actually used for any stream.\nStream mapping:\n  Stream #0:0 -> #0:0 (h264 (native) -> hevc (libx265))\nPress [q] to stop, [?] for help\n[libx265 @ 000001ca21f20940] Unknown option: \"aq-mode.\nx265 [info]: HEVC encoder version 4.1+190-8f11c33ac\nx265 [info]: build info [Windows][GCC 15.1.0][64 bit] 10bit\nx265 [info]: using cpu capabilities: MMX2 SSE2Fast LZCNT SSSE3 SSE4.2 AVX FMA3 BMI2 AVX2\nx265 [info]: Main 10 profile, Level-4.1 (Main tier)\nx265 [info]: Thread pool created using 12 threads\nx265 [info]: Slices                              : 1\nx265 [info]: frame threads / pool features       : 3 / wpp(17 rows)\nx265 [info]: Coding QT: max CU size, min CU size : 64 / 8\nx265 [info]: Residual QT: max TU size, max depth : 32 / 1 inter / 1 intra\nx265 [info]: ME / range / subpel / merge         : star / 57 / 3 / 3\nx265 [info]: Keyframe min / max / scenecut / bias  : 25 / 250 / 40 / 5.00 \nx265 [info]: Lookahead / bframes / badapt        : 25 / 4 / 2\nx265 [info]: b-pyramid / weightp / weightb       : 1 / 1 / 0\nx265 [info]: References / ref-limit  cu / depth  : 4 / on / on\nx265 [info]: AQ: mode / str / qg-size / cu-tree  : 2 / 1.0 / 32 / 1\nx265 [info]: Rate Control / qCompress            : ABR-1000 kbps / 0.60\nx265 [info]: VBV/HRD buffer / max-rate / init    : 1000 / 1000 / 0.750\nx265 [info]: tools: rect limit-modes rd=4 psy-rd=2.00 rdoq=2 psy-rdoq=1.00\nx265 [info]: tools: rskip mode=1 signhide tmvp strong-intra-smoothing lslices=4\nx265 [info]: tools: deblock sao dhdr10-info\nOutput #0, mp4, to 'C:\\Users\\Peter\\Desktop\\stuff\\MIUN\\quantitative_research\\video_compression\\compressed_videos\\BVI-HD\\hevc\\1\\MartialArts_1920x1080_60fps_hevc.mp4':\n  Metadata:\n    major_brand     : isom\n    minor_version   : 512\n    compatible_brands: isomiso2avc1mp41\n    encoder         : Lavf62.3.100\n  Stream #0:0(und): Video: hevc (hev1 / 0x31766568), yuv420p10le(tv, progressive), 1920x1080, q=2-31, 1000 kb/s, 60 fps, 15360 tbn (default)\n    Metadata:\n      encoder         : Lavc62.11.100 libx265\n      handler_name    : VideoHandler\n      vendor_id       : [0][0][0][0]\n    Side data:\n      cpb: bitrate max/min/avg: 1000000/0/1000000 buffer size: 1000000 vbv_delay: N/A\nframe=    0 fps=0.0 q=0.0 size=       0KiB time=N/A bitrate=N/A speed=N/A elapsed=0:00:00.52    \nframe=    0 fps=0.0 q=0.0 size=       0KiB time=N/A bitrate=N/A speed=N/A elapsed=0:00:01.05    \nframe=    0 fps=0.0 q=0.0 size=       0KiB time=N/A bitrate=N/A speed=N/A elapsed=0:00:01.58    \nframe=    0 fps=0.0 q=0.0 size=       0KiB time=N/A bitrate=N/A speed=N/A elapsed=0:00:02.10    \nframe=    0 fps=0.0 q=0.0 size=       0KiB time=N/A bitrate=N/A speed=N/A elapsed=0:00:02.63    \nframe=    0 fps=0.0 q=0.0 size=       0KiB time=N/A bitrate=N/A speed=N/A elapsed=0:00:03.20    \nframe=    0 fps=0.0 q=0.0 size=       0KiB time=N/A bitrate=N/A speed=N/A elapsed=0:00:03.72    \nframe=    0 fps=0.0 q=0.0 size=       0KiB time=N/A bitrate=N/A speed=N/A elapsed=0:00:04.25    \nframe=    0 fps=0.0 q=0.0 size=       0KiB time=N/A bitrate=N/A speed=N/A elapsed=0:00:04.76    \nframe=    1 fps=0.2 q=43.9 size=       0KiB time=-00:00:00.01 bitrate=N/A speed=N/A elapsed=0:00:05.29    \nframe=    2 fps=0.3 q=48.6 size=       0KiB time=00:00:00.00 bitrate=N/A speed=   0x elapsed=0:00:05.81    \nframe=    3 fps=0.5 q=46.9 size=       0KiB time=00:00:00.01 bitrate=  21.1kbits/s speed=0.00263x elapsed=0:00:06.33    \nframe=    4 fps=0.6 q=46.7 size=       0KiB time=00:00:00.03 bitrate=  10.6kbits/s speed=0.00484x elapsed=0:00:06.88    \nframe=    4 fps=0.5 q=46.7 size=       0KiB time=00:00:00.03 bitrate=  10.6kbits/s speed=0.00449x elapsed=0:00:07.41    \nframe=    6 fps=0.8 q=46.8 size=       0KiB time=00:00:00.06 bitrate=   5.3kbits/s speed=0.00839x elapsed=0:00:07.95    \nframe=    7 fps=0.8 q=41.8 size=       0KiB time=00:00:00.08 bitrate=   4.2kbits/s speed=0.00984x elapsed=0:00:08.46    \nframe=    8 fps=0.9 q=43.4 size=       0KiB time=00:00:00.10 bitrate=   3.5kbits/s speed=0.0111x elapsed=0:00:08.98    \nframe=    9 fps=0.9 q=43.9 size=       0KiB time=00:00:00.11 bitrate=   3.0kbits/s speed=0.0123x elapsed=0:00:09.50    \nframe=   10 fps=1.0 q=40.8 size=       0KiB time=00:00:00.13 bitrate=   2.6kbits/s speed=0.0133x elapsed=0:00:10.02    \nframe=   11 fps=1.0 q=40.7 size=       0KiB time=00:00:00.15 bitrate=   2.3kbits/s speed=0.0142x elapsed=0:00:10.53    \nframe=   11 fps=1.0 q=40.7 size=       0KiB time=00:00:00.15 bitrate=   2.3kbits/s speed=0.0136x elapsed=0:00:11.05    \nframe=   12 fps=1.0 q=36.4 size=       0KiB time=00:00:00.16 bitrate=   2.1kbits/s speed=0.0144x elapsed=0:00:11.57    \nframe=   13 fps=1.1 q=41.5 size=       0KiB time=00:00:00.18 bitrate=   1.9kbits/s speed=0.0152x elapsed=0:00:12.08    \nframe=   14 fps=1.1 q=40.2 size=       0KiB time=00:00:00.20 bitrate=   1.8kbits/s speed=0.0159x elapsed=0:00:12.60    \nframe=   14 fps=1.1 q=40.2 size=       0KiB time=00:00:00.20 bitrate=   1.8kbits/s speed=0.0152x elapsed=0:00:13.13    \nframe=   15 fps=1.1 q=41.7 size=       0KiB time=00:00:00.21 bitrate=   1.6kbits/s speed=0.0159x elapsed=0:00:13.66    \nframe=   16 fps=1.1 q=42.0 size=       0KiB time=00:00:00.23 bitrate=   1.5kbits/s speed=0.0164x elapsed=0:00:14.22    \nframe=   17 fps=1.2 q=35.6 size=       0KiB time=00:00:00.25 bitrate=   1.4kbits/s speed=0.017x elapsed=0:00:14.74    \nframe=   19 fps=1.2 q=40.9 size=       0KiB time=00:00:00.28 bitrate=   1.2kbits/s speed=0.0186x elapsed=0:00:15.26    \nframe=   19 fps=1.2 q=40.9 size=       0KiB time=00:00:00.28 bitrate=   1.2kbits/s speed=0.0179x elapsed=0:00:15.79    \nframe=   20 fps=1.2 q=40.5 size=       0KiB time=00:00:00.30 bitrate=   1.2kbits/s speed=0.0184x elapsed=0:00:16.31    \nframe=   20 fps=1.2 q=40.5 size=       0KiB time=00:00:00.30 bitrate=   1.2kbits/s speed=0.0178x elapsed=0:00:16.82    \nframe=   22 fps=1.3 q=34.6 size=       0KiB time=00:00:00.33 bitrate=   1.1kbits/s speed=0.0192x elapsed=0:00:17.35    \nframe=   22 fps=1.2 q=34.6 size=       0KiB time=00:00:00.33 bitrate=   1.1kbits/s speed=0.0186x elapsed=0:00:17.87    \nframe=   23 fps=1.3 q=39.7 size=       0KiB time=00:00:00.35 bitrate=   1.0kbits/s speed=0.019x elapsed=0:00:18.39    \nframe=   24 fps=1.3 q=39.8 size=       0KiB time=00:00:00.36 bitrate=   1.0kbits/s speed=0.0194x elapsed=0:00:18.91    \nframe=   25 fps=1.3 q=37.7 size=       0KiB time=00:00:00.38 bitrate=   0.9kbits/s speed=0.0197x elapsed=0:00:19.42    \nframe=   25 fps=1.3 q=37.7 size=       0KiB time=00:00:00.38 bitrate=   0.9kbits/s speed=0.0192x elapsed=0:00:19.94    \nframe=   26 fps=1.3 q=37.7 size=       0KiB time=00:00:00.40 bitrate=   0.9kbits/s speed=0.0196x elapsed=0:00:20.45    \nframe=   26 fps=1.2 q=37.7 size=       0KiB time=00:00:00.40 bitrate=   0.9kbits/s speed=0.0191x elapsed=0:00:20.97    \nframe=   28 fps=1.3 q=38.1 size=       0KiB time=00:00:00.43 bitrate=   0.8kbits/s speed=0.0202x elapsed=0:00:21.48    \nframe=   28 fps=1.3 q=38.1 size=       0KiB time=00:00:00.43 bitrate=   0.8kbits/s speed=0.0197x elapsed=0:00:22.01    \nframe=   29 fps=1.3 q=38.7 size=       0KiB time=00:00:00.45 bitrate=   0.8kbits/s speed=0.02x elapsed=0:00:22.55    \nframe=   30 fps=1.3 q=37.8 size=       0KiB time=00:00:00.46 bitrate=   0.8kbits/s speed=0.0202x elapsed=0:00:23.07    \nframe=   30 fps=1.3 q=37.8 size=       0KiB time=00:00:00.46 bitrate=   0.8kbits/s speed=0.0198x elapsed=0:00:23.58    \nframe=   31 fps=1.3 q=37.8 size=       0KiB time=00:00:00.48 bitrate=   0.7kbits/s speed=0.02x elapsed=0:00:24.10    \nframe=   32 fps=1.3 q=32.0 size=       0KiB time=00:00:00.50 bitrate=   0.7kbits/s speed=0.0203x elapsed=0:00:24.63    \nframe=   33 fps=1.3 q=37.1 size=       0KiB time=00:00:00.51 bitrate=   0.7kbits/s speed=0.0205x elapsed=0:00:25.16    \nframe=   33 fps=1.3 q=37.1 size=       0KiB time=00:00:00.51 bitrate=   0.7kbits/s speed=0.0201x elapsed=0:00:25.67    \nframe=   34 fps=1.3 q=37.8 size=       0KiB time=00:00:00.53 bitrate=   0.7kbits/s speed=0.0204x elapsed=0:00:26.19    \nframe=   34 fps=1.3 q=37.8 size=       0KiB time=00:00:00.53 bitrate=   0.7kbits/s speed=0.02x elapsed=0:00:26.73    \nframe=   35 fps=1.3 q=37.8 size=       0KiB time=00:00:00.55 bitrate=   0.6kbits/s speed=0.0202x elapsed=0:00:27.24    \nframe=   36 fps=1.3 q=33.2 size=       0KiB time=00:00:00.56 bitrate=   0.6kbits/s speed=0.0204x elapsed=0:00:27.77    \nframe=   36 fps=1.3 q=33.2 size=       0KiB time=00:00:00.56 bitrate=   0.6kbits/s speed=0.02x elapsed=0:00:28.28    \nframe=   37 fps=1.3 q=35.4 size=       0KiB time=00:00:00.58 bitrate=   0.6kbits/s speed=0.0202x elapsed=0:00:28.81    \nframe=   38 fps=1.3 q=37.9 size=       0KiB time=00:00:00.60 bitrate=   0.6kbits/s speed=0.0205x elapsed=0:00:29.31    \nframe=   38 fps=1.3 q=37.9 size=       0KiB time=00:00:00.60 bitrate=   0.6kbits/s speed=0.0201x elapsed=0:00:29.83    \nframe=   38 fps=1.3 q=37.9 size=       0KiB time=00:00:00.60 bitrate=   0.6kbits/s speed=0.0198x elapsed=0:00:30.35    \nframe=   39 fps=1.3 q=36.9 size=       0KiB time=00:00:00.61 bitrate=   0.6kbits/s speed=0.02x elapsed=0:00:30.87    \nframe=   40 fps=1.3 q=37.1 size=       0KiB time=00:00:00.63 bitrate=   0.6kbits/s speed=0.0202x elapsed=0:00:31.37    \nframe=   41 fps=1.3 q=32.2 size=       0KiB time=00:00:00.65 bitrate=   0.5kbits/s speed=0.0204x elapsed=0:00:31.89    \nframe=   42 fps=1.3 q=36.0 size=       0KiB time=00:00:00.66 bitrate=   0.5kbits/s speed=0.0206x elapsed=0:00:32.41    \nframe=   42 fps=1.3 q=36.0 size=       0KiB time=00:00:00.66 bitrate=   0.5kbits/s speed=0.0202x elapsed=0:00:32.92    \nframe=   42 fps=1.3 q=36.0 size=       0KiB time=00:00:00.66 bitrate=   0.5kbits/s speed=0.0199x elapsed=0:00:33.43    \nframe=   43 fps=1.3 q=37.8 size=       0KiB time=00:00:00.68 bitrate=   0.5kbits/s speed=0.0201x elapsed=0:00:33.95    \nframe=   43 fps=1.2 q=37.8 size=       0KiB time=00:00:00.68 bitrate=   0.5kbits/s speed=0.0198x elapsed=0:00:34.47    \nframe=   44 fps=1.3 q=37.1 size=       0KiB time=00:00:00.70 bitrate=   0.5kbits/s speed=0.02x elapsed=0:00:34.99    \nframe=   45 fps=1.3 q=32.6 size=       0KiB time=00:00:00.71 bitrate=   0.5kbits/s speed=0.0202x elapsed=0:00:35.51    \nframe=   45 fps=1.2 q=32.6 size=       0KiB time=00:00:00.71 bitrate=   0.5kbits/s speed=0.0199x elapsed=0:00:36.04    \nframe=   45 fps=1.2 q=32.6 size=       0KiB time=00:00:00.71 bitrate=   0.5kbits/s speed=0.0196x elapsed=0:00:36.56    \nframe=   45 fps=1.2 q=32.6 size=       0KiB time=00:00:00.71 bitrate=   0.5kbits/s speed=0.0193x elapsed=0:00:37.08    \nframe=   46 fps=1.2 q=33.2 size=       0KiB time=00:00:00.73 bitrate=   0.5kbits/s speed=0.0195x elapsed=0:00:37.60    \nframe=   46 fps=1.2 q=33.2 size=       0KiB time=00:00:00.73 bitrate=   0.5kbits/s speed=0.0192x elapsed=0:00:38.14    \nframe=   47 fps=1.2 q=37.7 size=       0KiB time=00:00:00.75 bitrate=   0.5kbits/s speed=0.0194x elapsed=0:00:38.65    \nframe=   47 fps=1.2 q=37.7 size=       0KiB time=00:00:00.75 bitrate=   0.5kbits/s speed=0.0191x elapsed=0:00:39.19    \nframe=   48 fps=1.2 q=32.8 size=       0KiB time=00:00:00.76 bitrate=   0.5kbits/s speed=0.0193x elapsed=0:00:39.72    \nframe=   49 fps=1.2 q=36.4 size=       0KiB time=00:00:00.78 bitrate=   0.4kbits/s speed=0.0195x elapsed=0:00:40.24    \nframe=   50 fps=1.2 q=37.4 size=       0KiB time=00:00:00.80 bitrate=   0.4kbits/s speed=0.0196x elapsed=0:00:40.75    \nframe=   50 fps=1.2 q=37.4 size=       0KiB time=00:00:00.80 bitrate=   0.4kbits/s speed=0.0194x elapsed=0:00:41.29    \nframe=   50 fps=1.2 q=37.4 size=       0KiB time=00:00:00.80 bitrate=   0.4kbits/s speed=0.0191x elapsed=0:00:41.81    \nframe=   51 fps=1.2 q=38.1 size=       0KiB time=00:00:00.81 bitrate=   0.4kbits/s speed=0.0193x elapsed=0:00:42.32    \nframe=   52 fps=1.2 q=38.5 size=       0KiB time=00:00:00.83 bitrate=   0.4kbits/s speed=0.0194x elapsed=0:00:42.86    \nframe=   53 fps=1.2 q=34.6 size=       0KiB time=00:00:00.85 bitrate=   0.4kbits/s speed=0.0196x elapsed=0:00:43.41    \nframe=   54 fps=1.2 q=36.2 size=       0KiB time=00:00:00.86 bitrate=   0.4kbits/s speed=0.0197x elapsed=0:00:43.92    \nframe=   54 fps=1.2 q=36.2 size=       0KiB time=00:00:00.86 bitrate=   0.4kbits/s speed=0.0195x elapsed=0:00:44.44    \nframe=   55 fps=1.2 q=39.1 size=       0KiB time=00:00:00.88 bitrate=   0.4kbits/s speed=0.0196x elapsed=0:00:44.96    \nframe=   55 fps=1.2 q=39.1 size=       0KiB time=00:00:00.88 bitrate=   0.4kbits/s speed=0.0194x elapsed=0:00:45.47    \nframe=   55 fps=1.2 q=39.1 size=       0KiB time=00:00:00.88 bitrate=   0.4kbits/s speed=0.0192x elapsed=0:00:45.98    \nframe=   57 fps=1.2 q=34.8 size=       0KiB time=00:00:00.91 bitrate=   0.4kbits/s speed=0.0197x elapsed=0:00:46.51    \nframe=   57 fps=1.2 q=34.8 size=       0KiB time=00:00:00.91 bitrate=   0.4kbits/s speed=0.0195x elapsed=0:00:47.05    \nframe=   58 fps=1.2 q=37.1 size=       0KiB time=00:00:00.93 bitrate=   0.4kbits/s speed=0.0196x elapsed=0:00:47.58    \nframe=   59 fps=1.2 q=39.1 size=       0KiB time=00:00:00.95 bitrate=   0.4kbits/s speed=0.0197x elapsed=0:00:48.12    \nframe=   59 fps=1.2 q=39.1 size=       0KiB time=00:00:00.95 bitrate=   0.4kbits/s speed=0.0195x elapsed=0:00:48.66    \nframe=   59 fps=1.2 q=39.1 size=       0KiB time=00:00:00.95 bitrate=   0.4kbits/s speed=0.0193x elapsed=0:00:49.18    \nframe=   60 fps=1.2 q=39.1 size=       0KiB time=00:00:00.96 bitrate=   0.4kbits/s speed=0.0195x elapsed=0:00:49.68    \nframe=   61 fps=1.2 q=35.0 size=       0KiB time=00:00:00.98 bitrate=   0.4kbits/s speed=0.0196x elapsed=0:00:50.21    \nframe=   62 fps=1.2 q=37.0 size=       0KiB time=00:00:01.00 bitrate=   0.4kbits/s speed=0.0197x elapsed=0:00:50.74    \nframe=   62 fps=1.2 q=37.0 size=       0KiB time=00:00:01.00 bitrate=   0.4kbits/s speed=0.0195x elapsed=0:00:51.25    \nframe=   63 fps=1.2 q=39.3 size=       0KiB time=00:00:01.01 bitrate=   0.3kbits/s speed=0.0196x elapsed=0:00:51.77    \nframe=   63 fps=1.2 q=39.3 size=       0KiB time=00:00:01.01 bitrate=   0.3kbits/s speed=0.0194x elapsed=0:00:52.28    \nframe=   63 fps=1.2 q=39.3 size=       0KiB time=00:00:01.01 bitrate=   0.3kbits/s speed=0.0193x elapsed=0:00:52.79    \nframe=   65 fps=1.2 q=35.1 size=       0KiB time=00:00:01.05 bitrate=   0.3kbits/s speed=0.0197x elapsed=0:00:53.31    \nframe=   66 fps=1.2 q=37.3 size=       0KiB time=00:00:01.06 bitrate=   0.3kbits/s speed=0.0198x elapsed=0:00:53.83    \nframe=   66 fps=1.2 q=37.3 size=       0KiB time=00:00:01.06 bitrate=   0.3kbits/s speed=0.0196x elapsed=0:00:54.35    \nframe=   67 fps=1.2 q=39.4 size=       0KiB time=00:00:01.08 bitrate=   0.3kbits/s speed=0.0197x elapsed=0:00:54.87    \nframe=   68 fps=1.2 q=39.6 size=       0KiB time=00:00:01.10 bitrate=   0.3kbits/s speed=0.0199x elapsed=0:00:55.38    \nframe=   69 fps=1.2 q=34.8 size=       0KiB time=00:00:01.11 bitrate=   0.3kbits/s speed=0.02x elapsed=0:00:55.91    \nframe=   69 fps=1.2 q=34.8 size=       0KiB time=00:00:01.11 bitrate=   0.3kbits/s speed=0.0198x elapsed=0:00:56.42    \nframe=   70 fps=1.2 q=38.0 size=       0KiB time=00:00:01.13 bitrate=   0.3kbits/s speed=0.0199x elapsed=0:00:56.94    \nframe=   71 fps=1.2 q=39.5 size=       0KiB time=00:00:01.15 bitrate=   0.3kbits/s speed=0.02x elapsed=0:00:57.46    \nframe=   71 fps=1.2 q=39.5 size=       0KiB time=00:00:01.15 bitrate=   0.3kbits/s speed=0.0198x elapsed=0:00:57.99    \nframe=   72 fps=1.2 q=39.1 size=       0KiB time=00:00:01.16 bitrate=   0.3kbits/s speed=0.0199x elapsed=0:00:58.51    \nframe=   72 fps=1.2 q=39.1 size=       0KiB time=00:00:01.16 bitrate=   0.3kbits/s speed=0.0198x elapsed=0:00:59.04    \nframe=   72 fps=1.2 q=39.1 size=       0KiB time=00:00:01.16 bitrate=   0.3kbits/s speed=0.0196x elapsed=0:00:59.56    \nframe=   72 fps=1.2 q=39.1 size=       0KiB time=00:00:01.16 bitrate=   0.3kbits/s speed=0.0194x elapsed=0:01:00.15    \nframe=   73 fps=1.2 q=39.5 size=       0KiB time=00:00:01.18 bitrate=   0.3kbits/s speed=0.0195x elapsed=0:01:00.69    \nframe=   73 fps=1.2 q=39.5 size=       0KiB time=00:00:01.18 bitrate=   0.3kbits/s speed=0.0193x elapsed=0:01:01.22    \nframe=   73 fps=1.2 q=39.5 size=       0KiB time=00:00:01.18 bitrate=   0.3kbits/s speed=0.0192x elapsed=0:01:01.74    \nframe=   74 fps=1.2 q=34.9 size=       0KiB time=00:00:01.20 bitrate=   0.3kbits/s speed=0.0193x elapsed=0:01:02.25    \nframe=   74 fps=1.2 q=34.9 size=       0KiB time=00:00:01.20 bitrate=   0.3kbits/s speed=0.0191x elapsed=0:01:02.76    \nframe=   75 fps=1.2 q=36.0 size=       0KiB time=00:00:01.21 bitrate=   0.3kbits/s speed=0.0192x elapsed=0:01:03.29    \nframe=   75 fps=1.2 q=36.0 size=       0KiB time=00:00:01.21 bitrate=   0.3kbits/s speed=0.0191x elapsed=0:01:03.82    \nframe=   75 fps=1.2 q=36.0 size=       0KiB time=00:00:01.21 bitrate=   0.3kbits/s speed=0.0189x elapsed=0:01:04.36    \nframe=   75 fps=1.2 q=36.0 size=       0KiB time=00:00:01.21 bitrate=   0.3kbits/s speed=0.0187x elapsed=0:01:04.93    \nframe=   75 fps=1.1 q=36.0 size=       0KiB time=00:00:01.21 bitrate=   0.3kbits/s speed=0.0186x elapsed=0:01:05.47    \nframe=   76 fps=1.2 q=39.3 size=       0KiB time=00:00:01.23 bitrate=   0.3kbits/s speed=0.0187x elapsed=0:01:06.00    \nframe=   77 fps=1.2 q=39.3 size=       0KiB time=00:00:01.25 bitrate=   0.3kbits/s speed=0.0188x elapsed=0:01:06.52    \nframe=   77 fps=1.1 q=39.3 size=       0KiB time=00:00:01.25 bitrate=   0.3kbits/s speed=0.0186x elapsed=0:01:07.03    \nframe=   77 fps=1.1 q=39.3 size=       0KiB time=00:00:01.25 bitrate=   0.3kbits/s speed=0.0185x elapsed=0:01:07.57    \nframe=   77 fps=1.1 q=39.3 size=       0KiB time=00:00:01.25 bitrate=   0.3kbits/s speed=0.0184x elapsed=0:01:08.08    \nframe=   77 fps=1.1 q=39.3 size=       0KiB time=00:00:01.25 bitrate=   0.3kbits/s speed=0.0182x elapsed=0:01:08.61    \nframe=   77 fps=1.1 q=39.3 size=       0KiB time=00:00:01.25 bitrate=   0.3kbits/s speed=0.0181x elapsed=0:01:09.17    \nframe=   78 fps=1.1 q=39.4 size=       0KiB time=00:00:01.26 bitrate=   0.3kbits/s speed=0.0182x elapsed=0:01:09.70    \nframe=   78 fps=1.1 q=39.4 size=       0KiB time=00:00:01.26 bitrate=   0.3kbits/s speed=0.018x elapsed=0:01:10.25    \nframe=   79 fps=1.1 q=34.4 size=       0KiB time=00:00:01.28 bitrate=   0.3kbits/s speed=0.0181x elapsed=0:01:10.81    \nframe=   79 fps=1.1 q=34.4 size=       0KiB time=00:00:01.28 bitrate=   0.3kbits/s speed=0.018x elapsed=0:01:11.33    \nframe=   79 fps=1.1 q=34.4 size=       0KiB time=00:00:01.28 bitrate=   0.3kbits/s speed=0.0179x elapsed=0:01:11.87    \nframe=   79 fps=1.1 q=34.4 size=       0KiB time=00:00:01.28 bitrate=   0.3kbits/s speed=0.0177x elapsed=0:01:12.40    \nframe=   80 fps=1.1 q=37.3 size=       0KiB time=00:00:01.30 bitrate=   0.3kbits/s speed=0.0178x elapsed=0:01:12.94    \nframe=   80 fps=1.1 q=37.3 size=       0KiB time=00:00:01.30 bitrate=   0.3kbits/s speed=0.0177x elapsed=0:01:13.48    \nframe=   81 fps=1.1 q=39.2 size=       0KiB time=00:00:01.31 bitrate=   0.3kbits/s speed=0.0178x elapsed=0:01:14.04    \nframe=   82 fps=1.1 q=39.3 size=       0KiB time=00:00:01.33 bitrate=   0.3kbits/s speed=0.0179x elapsed=0:01:14.58    \nframe=   82 fps=1.1 q=39.3 size=       0KiB time=00:00:01.33 bitrate=   0.3kbits/s speed=0.0178x elapsed=0:01:15.11    \nframe=   82 fps=1.1 q=39.3 size=       0KiB time=00:00:01.33 bitrate=   0.3kbits/s speed=0.0176x elapsed=0:01:15.63    \nframe=   82 fps=1.1 q=39.3 size=       0KiB time=00:00:01.33 bitrate=   0.3kbits/s speed=0.0175x elapsed=0:01:16.15    \nframe=   82 fps=1.1 q=39.3 size=       0KiB time=00:00:01.33 bitrate=   0.3kbits/s speed=0.0174x elapsed=0:01:16.68    \nframe=   83 fps=1.1 q=39.5 size=       0KiB time=00:00:01.35 bitrate=   0.3kbits/s speed=0.0175x elapsed=0:01:17.21    \nframe=   83 fps=1.1 q=39.5 size=       0KiB time=00:00:01.35 bitrate=   0.3kbits/s speed=0.0174x elapsed=0:01:17.73    \nframe=   84 fps=1.1 q=34.8 size=       0KiB time=00:00:01.36 bitrate=   0.3kbits/s speed=0.0175x elapsed=0:01:18.29    \nframe=   84 fps=1.1 q=34.8 size=       0KiB time=00:00:01.36 bitrate=   0.3kbits/s speed=0.0173x elapsed=0:01:18.82    \nframe=   85 fps=1.1 q=37.1 size=       0KiB time=00:00:01.38 bitrate=   0.3kbits/s speed=0.0174x elapsed=0:01:19.38    \nframe=   85 fps=1.1 q=37.1 size=       0KiB time=00:00:01.38 bitrate=   0.3kbits/s speed=0.0173x elapsed=0:01:19.92    \nframe=   86 fps=1.1 q=39.4 size=       0KiB time=00:00:01.40 bitrate=   0.3kbits/s speed=0.0174x elapsed=0:01:20.48    \nframe=   86 fps=1.1 q=39.4 size=       0KiB time=00:00:01.40 bitrate=   0.3kbits/s speed=0.0173x elapsed=0:01:21.02    \nframe=   86 fps=1.1 q=39.4 size=       0KiB time=00:00:01.40 bitrate=   0.3kbits/s speed=0.0172x elapsed=0:01:21.53    \nframe=   87 fps=1.1 q=39.3 size=       0KiB time=00:00:01.41 bitrate=   0.2kbits/s speed=0.0173x elapsed=0:01:22.05    \nframe=   87 fps=1.1 q=39.3 size=       0KiB time=00:00:01.41 bitrate=   0.2kbits/s speed=0.0172x elapsed=0:01:22.59    \nframe=   87 fps=1.0 q=39.3 size=       0KiB time=00:00:01.41 bitrate=   0.2kbits/s speed=0.017x elapsed=0:01:23.12    \nframe=   88 fps=1.1 q=39.4 size=       0KiB time=00:00:01.43 bitrate=   0.2kbits/s speed=0.0171x elapsed=0:01:23.64    \nframe=   88 fps=1.0 q=39.4 size=       0KiB time=00:00:01.43 bitrate=   0.2kbits/s speed=0.017x elapsed=0:01:24.17    \nframe=   88 fps=1.0 q=39.4 size=       0KiB time=00:00:01.43 bitrate=   0.2kbits/s speed=0.0169x elapsed=0:01:24.72    \nframe=   89 fps=1.0 q=35.0 size=       0KiB time=00:00:01.45 bitrate=   0.2kbits/s speed=0.017x elapsed=0:01:25.26    \nframe=   90 fps=1.0 q=38.1 size=       0KiB time=00:00:01.46 bitrate=   0.2kbits/s speed=0.0171x elapsed=0:01:25.78    \nframe=   90 fps=1.0 q=38.1 size=       0KiB time=00:00:01.46 bitrate=   0.2kbits/s speed=0.017x elapsed=0:01:26.31    \nframe=   91 fps=1.0 q=39.2 size=       0KiB time=00:00:01.48 bitrate=   0.2kbits/s speed=0.0171x elapsed=0:01:26.85    \nframe=   91 fps=1.0 q=39.2 size=       0KiB time=00:00:01.48 bitrate=   0.2kbits/s speed=0.017x elapsed=0:01:27.40    \nframe=   91 fps=1.0 q=39.2 size=       0KiB time=00:00:01.48 bitrate=   0.2kbits/s speed=0.0169x elapsed=0:01:27.93    \nframe=   91 fps=1.0 q=39.2 size=       0KiB time=00:00:01.48 bitrate=   0.2kbits/s speed=0.0168x elapsed=0:01:28.46    \nframe=   91 fps=1.0 q=39.2 size=       0KiB time=00:00:01.48 bitrate=   0.2kbits/s speed=0.0167x elapsed=0:01:28.99    \nframe=   92 fps=1.0 q=39.0 size=       0KiB time=00:00:01.50 bitrate=   0.2kbits/s speed=0.0168x elapsed=0:01:29.53    \nframe=   92 fps=1.0 q=39.0 size=       0KiB time=00:00:01.50 bitrate=   0.2kbits/s speed=0.0167x elapsed=0:01:30.06    \nframe=   92 fps=1.0 q=39.0 size=       0KiB time=00:00:01.50 bitrate=   0.2kbits/s speed=0.0166x elapsed=0:01:30.60    \nframe=   92 fps=1.0 q=39.0 size=       0KiB time=00:00:01.50 bitrate=   0.2kbits/s speed=0.0165x elapsed=0:01:31.16    \nframe=   92 fps=1.0 q=39.0 size=       0KiB time=00:00:01.50 bitrate=   0.2kbits/s speed=0.0163x elapsed=0:01:31.75    \nframe=   92 fps=1.0 q=39.0 size=       0KiB time=00:00:01.50 bitrate=   0.2kbits/s speed=0.0162x elapsed=0:01:32.36    \nframe=   93 fps=1.0 q=38.4 size=       0KiB time=00:00:01.51 bitrate=   0.2kbits/s speed=0.0163x elapsed=0:01:32.93    \nframe=   93 fps=1.0 q=38.4 size=       0KiB time=00:00:01.51 bitrate=   0.2kbits/s speed=0.0162x elapsed=0:01:33.50    \nframe=   93 fps=1.0 q=38.4 size=       0KiB time=00:00:01.51 bitrate=   0.2kbits/s speed=0.0161x elapsed=0:01:34.08    \nframe=   93 fps=1.0 q=38.4 size=       0KiB time=00:00:01.51 bitrate=   0.2kbits/s speed=0.016x elapsed=0:01:34.65    \nframe=   94 fps=1.0 q=33.4 size=       0KiB time=00:00:01.53 bitrate=   0.2kbits/s speed=0.0161x elapsed=0:01:35.22    \nframe=   94 fps=1.0 q=33.4 size=       0KiB time=00:00:01.53 bitrate=   0.2kbits/s speed=0.016x elapsed=0:01:35.75    \nframe=   95 fps=1.0 q=37.9 size=       0KiB time=00:00:01.55 bitrate=   0.2kbits/s speed=0.0161x elapsed=0:01:36.27    \nframe=   95 fps=1.0 q=37.9 size=       0KiB time=00:00:01.55 bitrate=   0.2kbits/s speed=0.016x elapsed=0:01:36.78    \nframe=   96 fps=1.0 q=39.0 size=       0KiB time=00:00:01.56 bitrate=   0.2kbits/s speed=0.0161x elapsed=0:01:37.29    \nframe=   97 fps=1.0 q=38.2 size=       0KiB time=00:00:01.58 bitrate=   0.2kbits/s speed=0.0162x elapsed=0:01:37.81    \nframe=   98 fps=1.0 q=38.6 size=       0KiB time=00:00:01.60 bitrate=   0.2kbits/s speed=0.0163x elapsed=0:01:38.32    \nframe=   99 fps=1.0 q=34.1 size=       0KiB time=00:00:01.61 bitrate=   0.2kbits/s speed=0.0164x elapsed=0:01:38.86    \nframe=  100 fps=1.0 q=37.3 size=       0KiB time=00:00:01.63 bitrate=   0.2kbits/s speed=0.0164x elapsed=0:01:39.40    \nframe=  101 fps=1.0 q=38.3 size=       0KiB time=00:00:01.65 bitrate=   0.2kbits/s speed=0.0165x elapsed=0:01:39.91    \nframe=  101 fps=1.0 q=38.3 size=       0KiB time=00:00:01.65 bitrate=   0.2kbits/s speed=0.0164x elapsed=0:01:40.42    \nframe=  102 fps=1.0 q=38.2 size=       0KiB time=00:00:01.66 bitrate=   0.2kbits/s speed=0.0165x elapsed=0:01:40.96    \nframe=  103 fps=1.0 q=38.5 size=       0KiB time=00:00:01.68 bitrate=   0.2kbits/s speed=0.0166x elapsed=0:01:41.48    \nframe=  104 fps=1.0 q=32.8 size=       0KiB time=00:00:01.70 bitrate=   0.2kbits/s speed=0.0167x elapsed=0:01:42.01    \nframe=  105 fps=1.0 q=37.1 size=       0KiB time=00:00:01.71 bitrate=   0.2kbits/s speed=0.0167x elapsed=0:01:42.53    \nframe=  106 fps=1.0 q=38.3 size=       0KiB time=00:00:01.73 bitrate=   0.2kbits/s speed=0.0168x elapsed=0:01:43.04    \nframe=  106 fps=1.0 q=38.3 size=       0KiB time=00:00:01.73 bitrate=   0.2kbits/s speed=0.0167x elapsed=0:01:43.56    \nframe=  107 fps=1.0 q=38.2 size=       0KiB time=00:00:01.75 bitrate=   0.2kbits/s speed=0.0168x elapsed=0:01:44.10    \nframe=  108 fps=1.0 q=38.5 size=       0KiB time=00:00:01.76 bitrate=   0.2kbits/s speed=0.0169x elapsed=0:01:44.61    \nframe=  108 fps=1.0 q=38.5 size=       0KiB time=00:00:01.76 bitrate=   0.2kbits/s speed=0.0168x elapsed=0:01:45.13    \nframe=  109 fps=1.0 q=33.2 size=       0KiB time=00:00:01.78 bitrate=   0.2kbits/s speed=0.0169x elapsed=0:01:45.64    \nframe=  109 fps=1.0 q=33.2 size=       0KiB time=00:00:01.78 bitrate=   0.2kbits/s speed=0.0168x elapsed=0:01:46.15    \nframe=  110 fps=1.0 q=37.0 size=       0KiB time=00:00:01.80 bitrate=   0.2kbits/s speed=0.0169x elapsed=0:01:46.68    \nframe=  111 fps=1.0 q=38.1 size=       0KiB time=00:00:01.81 bitrate=   0.2kbits/s speed=0.0169x elapsed=0:01:47.20    \nframe=  112 fps=1.0 q=38.3 size=       0KiB time=00:00:01.83 bitrate=   0.2kbits/s speed=0.017x elapsed=0:01:47.72    \nframe=  113 fps=1.0 q=38.5 size=       0KiB time=00:00:01.85 bitrate=   0.2kbits/s speed=0.0171x elapsed=0:01:48.24    \nframe=  114 fps=1.0 q=33.6 size=       0KiB time=00:00:01.86 bitrate=   0.2kbits/s speed=0.0172x elapsed=0:01:48.76    \nframe=  115 fps=1.1 q=36.9 size=       0KiB time=00:00:01.88 bitrate=   0.2kbits/s speed=0.0172x elapsed=0:01:49.30    \nframe=  116 fps=1.1 q=38.3 size=       0KiB time=00:00:01.90 bitrate=   0.2kbits/s speed=0.0173x elapsed=0:01:49.83    \nframe=  117 fps=1.1 q=37.4 size=       0KiB time=00:00:01.91 bitrate=   0.2kbits/s speed=0.0174x elapsed=0:01:50.34    \nframe=  117 fps=1.1 q=37.4 size=       0KiB time=00:00:01.91 bitrate=   0.2kbits/s speed=0.0173x elapsed=0:01:50.87    \nframe=  118 fps=1.1 q=37.4 size=       0KiB time=00:00:01.93 bitrate=   0.2kbits/s speed=0.0174x elapsed=0:01:51.40    \nframe=  119 fps=1.1 q=32.7 size=       0KiB time=00:00:01.95 bitrate=   0.2kbits/s speed=0.0174x elapsed=0:01:51.90    \nframe=  121 fps=1.1 q=37.5 size=       0KiB time=00:00:01.98 bitrate=   0.2kbits/s speed=0.0176x elapsed=0:01:52.42    \nframe=  122 fps=1.1 q=37.5 size=       0KiB time=00:00:02.00 bitrate=   0.2kbits/s speed=0.0177x elapsed=0:01:52.96    \nframe=  122 fps=1.1 q=37.5 size=       0KiB time=00:00:02.00 bitrate=   0.2kbits/s speed=0.0176x elapsed=0:01:53.46    \nframe=  123 fps=1.1 q=37.5 size=       0KiB time=00:00:02.01 bitrate=   0.2kbits/s speed=0.0177x elapsed=0:01:53.99    \nframe=  124 fps=1.1 q=32.9 size=       0KiB time=00:00:02.03 bitrate=   0.2kbits/s speed=0.0178x elapsed=0:01:54.51    \nframe=  124 fps=1.1 q=32.9 size=       0KiB time=00:00:02.03 bitrate=   0.2kbits/s speed=0.0177x elapsed=0:01:55.04    \nframe=  125 fps=1.1 q=37.2 size=       0KiB time=00:00:02.05 bitrate=   0.2kbits/s speed=0.0177x elapsed=0:01:55.56    \nframe=  126 fps=1.1 q=38.5 size=       0KiB time=00:00:02.06 bitrate=   0.2kbits/s speed=0.0178x elapsed=0:01:56.09    \nframe=  128 fps=1.1 q=37.6 size=       0KiB time=00:00:02.10 bitrate=   0.2kbits/s speed=0.018x elapsed=0:01:56.62    \nframe=  128 fps=1.1 q=37.6 size=       0KiB time=00:00:02.10 bitrate=   0.2kbits/s speed=0.0179x elapsed=0:01:57.15    \nframe=  128 fps=1.1 q=37.6 size=       0KiB time=00:00:02.10 bitrate=   0.2kbits/s speed=0.0178x elapsed=0:01:57.67    \nframe=  129 fps=1.1 q=33.1 size=       0KiB time=00:00:02.11 bitrate=   0.2kbits/s speed=0.0179x elapsed=0:01:58.20    \nframe=  130 fps=1.1 q=36.5 size=       0KiB time=00:00:02.13 bitrate=   0.2kbits/s speed=0.018x elapsed=0:01:58.72    \nframe=  131 fps=1.1 q=37.7 size=     256KiB time=00:00:02.15 bitrate= 975.6kbits/s speed=0.018x elapsed=0:01:59.24    \nframe=  132 fps=1.1 q=36.6 size=     256KiB time=00:00:02.16 bitrate= 968.1kbits/s speed=0.0181x elapsed=0:01:59.76    \nframe=  132 fps=1.1 q=36.6 size=     256KiB time=00:00:02.16 bitrate= 968.1kbits/s speed=0.018x elapsed=0:02:00.28    \nframe=  133 fps=1.1 q=36.7 size=     256KiB time=00:00:02.18 bitrate= 960.7kbits/s speed=0.0181x elapsed=0:02:00.81    \nframe=  134 fps=1.1 q=31.1 size=     256KiB time=00:00:02.20 bitrate= 953.4kbits/s speed=0.0181x elapsed=0:02:01.34    \nframe=  134 fps=1.1 q=31.1 size=     256KiB time=00:00:02.20 bitrate= 953.4kbits/s speed=0.0181x elapsed=0:02:01.86    \nframe=  134 fps=1.1 q=31.1 size=     256KiB time=00:00:02.20 bitrate= 953.4kbits/s speed=0.018x elapsed=0:02:02.38    \nframe=  135 fps=1.1 q=36.2 size=     256KiB time=00:00:02.21 bitrate= 946.2kbits/s speed=0.018x elapsed=0:02:02.89    \nframe=  135 fps=1.1 q=36.2 size=     256KiB time=00:00:02.21 bitrate= 946.2kbits/s speed=0.018x elapsed=0:02:03.43    \nframe=  137 fps=1.1 q=36.7 size=     256KiB time=00:00:02.25 bitrate= 932.2kbits/s speed=0.0181x elapsed=0:02:03.97    \nframe=  137 fps=1.1 q=36.7 size=     256KiB time=00:00:02.25 bitrate= 932.2kbits/s speed=0.0181x elapsed=0:02:04.54    \nframe=  137 fps=1.1 q=36.7 size=     256KiB time=00:00:02.25 bitrate= 932.2kbits/s speed=0.018x elapsed=0:02:05.07    \nframe=  137 fps=1.1 q=36.7 size=     256KiB time=00:00:02.25 bitrate= 932.2kbits/s speed=0.0179x elapsed=0:02:05.61    \nframe=  137 fps=1.1 q=36.7 size=     256KiB time=00:00:02.25 bitrate= 932.2kbits/s speed=0.0178x elapsed=0:02:06.18    \nframe=  138 fps=1.1 q=36.7 size=     256KiB time=00:00:02.26 bitrate= 925.4kbits/s speed=0.0179x elapsed=0:02:06.71    \nframe=  139 fps=1.1 q=33.3 size=     256KiB time=00:00:02.28 bitrate= 918.6kbits/s speed=0.0179x elapsed=0:02:07.25    \nframe=  139 fps=1.1 q=33.3 size=     256KiB time=00:00:02.28 bitrate= 918.6kbits/s speed=0.0179x elapsed=0:02:07.76    \nframe=  139 fps=1.1 q=33.3 size=     256KiB time=00:00:02.28 bitrate= 918.6kbits/s speed=0.0178x elapsed=0:02:08.29    \nframe=  140 fps=1.1 q=35.3 size=     256KiB time=00:00:02.30 bitrate= 912.0kbits/s speed=0.0178x elapsed=0:02:08.85    \nframe=  140 fps=1.1 q=35.3 size=     256KiB time=00:00:02.30 bitrate= 912.0kbits/s speed=0.0178x elapsed=0:02:09.39    \nframe=  140 fps=1.1 q=35.3 size=     256KiB time=00:00:02.30 bitrate= 912.0kbits/s speed=0.0177x elapsed=0:02:09.95    \nframe=  140 fps=1.1 q=35.3 size=     256KiB time=00:00:02.30 bitrate= 912.0kbits/s speed=0.0176x elapsed=0:02:10.50    \nframe=  140 fps=1.1 q=35.3 size=     256KiB time=00:00:02.30 bitrate= 912.0kbits/s speed=0.0175x elapsed=0:02:11.06    \nframe=  141 fps=1.1 q=37.4 size=     256KiB time=00:00:02.31 bitrate= 905.4kbits/s speed=0.0176x elapsed=0:02:11.59    \nframe=  143 fps=1.1 q=33.1 size=     256KiB time=00:00:02.35 bitrate= 892.6kbits/s speed=0.0178x elapsed=0:02:12.13    \nframe=  143 fps=1.1 q=33.1 size=     256KiB time=00:00:02.35 bitrate= 892.6kbits/s speed=0.0177x elapsed=0:02:12.64    \nframe=  143 fps=1.1 q=33.1 size=     256KiB time=00:00:02.35 bitrate= 892.6kbits/s speed=0.0176x elapsed=0:02:13.24    \nframe=  143 fps=1.1 q=33.1 size=     256KiB time=00:00:02.35 bitrate= 892.6kbits/s speed=0.0176x elapsed=0:02:13.83    \nframe=  143 fps=1.1 q=33.1 size=     256KiB time=00:00:02.35 bitrate= 892.6kbits/s speed=0.0175x elapsed=0:02:14.47    \nframe=  143 fps=1.1 q=33.1 size=     256KiB time=00:00:02.35 bitrate= 892.6kbits/s speed=0.0174x elapsed=0:02:15.10    \nframe=  143 fps=1.1 q=33.1 size=     256KiB time=00:00:02.35 bitrate= 892.6kbits/s speed=0.0173x elapsed=0:02:15.66    \nframe=  143 fps=1.0 q=33.1 size=     256KiB time=00:00:02.35 bitrate= 892.6kbits/s speed=0.0173x elapsed=0:02:16.21    \nframe=  144 fps=1.1 q=35.2 size=     256KiB time=00:00:02.36 bitrate= 886.3kbits/s speed=0.0173x elapsed=0:02:16.77    \nframe=  144 fps=1.0 q=35.2 size=     256KiB time=00:00:02.36 bitrate= 886.3kbits/s speed=0.0172x elapsed=0:02:17.31    \nframe=  146 fps=1.1 q=37.6 size=     256KiB time=00:00:02.40 bitrate= 874.0kbits/s speed=0.0174x elapsed=0:02:17.83    \nframe=  146 fps=1.1 q=37.6 size=     256KiB time=00:00:02.40 bitrate= 874.0kbits/s speed=0.0173x elapsed=0:02:18.37    \nframe=  146 fps=1.1 q=37.6 size=     256KiB time=00:00:02.40 bitrate= 874.0kbits/s speed=0.0173x elapsed=0:02:18.90    \nframe=  147 fps=1.1 q=38.6 size=     256KiB time=00:00:02.41 bitrate= 867.9kbits/s speed=0.0173x elapsed=0:02:19.42    \nframe=  147 fps=1.1 q=38.6 size=     256KiB time=00:00:02.41 bitrate= 867.9kbits/s speed=0.0173x elapsed=0:02:19.94    \nframe=  148 fps=1.1 q=33.7 size=     256KiB time=00:00:02.43 bitrate= 862.0kbits/s speed=0.0173x elapsed=0:02:20.47    \nframe=  149 fps=1.1 q=36.0 size=     256KiB time=00:00:02.45 bitrate= 856.1kbits/s speed=0.0174x elapsed=0:02:21.01    \nframe=  151 fps=1.1 q=38.3 size=     256KiB time=00:00:02.48 bitrate= 844.6kbits/s speed=0.0175x elapsed=0:02:21.56    \nframe=  152 fps=1.1 q=38.5 size=     256KiB time=00:00:02.50 bitrate= 839.0kbits/s speed=0.0176x elapsed=0:02:22.08    \nframe=  152 fps=1.1 q=38.5 size=     256KiB time=00:00:02.50 bitrate= 839.0kbits/s speed=0.0175x elapsed=0:02:22.60    \nframe=  153 fps=1.1 q=34.2 size=     256KiB time=00:00:02.50 bitrate= 839.0kbits/s speed=0.0175x elapsed=0:02:23.11    \nframe=  153 fps=1.1 q=34.2 size=     256KiB time=00:00:02.51 bitrate= 833.4kbits/s speed=0.0175x elapsed=0:02:23.64    \nframe=  154 fps=1.1 q=37.0 size=     256KiB time=00:00:02.53 bitrate= 828.0kbits/s speed=0.0176x elapsed=0:02:24.16    \nframe=  155 fps=1.1 q=38.6 size=     256KiB time=00:00:02.55 bitrate= 822.6kbits/s speed=0.0176x elapsed=0:02:24.68    \nframe=  157 fps=1.1 q=39.7 size=     256KiB time=00:00:02.58 bitrate= 811.9kbits/s speed=0.0178x elapsed=0:02:25.21    \nframe=  157 fps=1.1 q=39.7 size=     256KiB time=00:00:02.58 bitrate= 811.9kbits/s speed=0.0177x elapsed=0:02:25.74    \nframe=  157 fps=1.1 q=39.7 size=     256KiB time=00:00:02.58 bitrate= 811.9kbits/s speed=0.0177x elapsed=0:02:26.26    \nframe=  159 fps=1.1 q=38.0 size=     256KiB time=00:00:02.61 bitrate= 801.6kbits/s speed=0.0178x elapsed=0:02:26.78    \nframe=  160 fps=1.1 q=39.3 size=     256KiB time=00:00:02.63 bitrate= 796.5kbits/s speed=0.0179x elapsed=0:02:27.30    \nframe=  161 fps=1.1 q=39.3 size=     256KiB time=00:00:02.65 bitrate= 791.5kbits/s speed=0.0179x elapsed=0:02:27.81    \nframe=  161 fps=1.1 q=39.3 size=     256KiB time=00:00:02.65 bitrate= 791.5kbits/s speed=0.0179x elapsed=0:02:28.33    \nframe=  162 fps=1.1 q=39.6 size=     256KiB time=00:00:02.66 bitrate= 786.6kbits/s speed=0.0179x elapsed=0:02:28.87    \nframe=  163 fps=1.1 q=34.2 size=     256KiB time=00:00:02.68 bitrate= 781.7kbits/s speed=0.018x elapsed=0:02:29.40    \nframe=  164 fps=1.1 q=37.1 size=     256KiB time=00:00:02.70 bitrate= 776.9kbits/s speed=0.018x elapsed=0:02:29.91    \nframe=  165 fps=1.1 q=39.5 size=     256KiB time=00:00:02.71 bitrate= 772.1kbits/s speed=0.0181x elapsed=0:02:30.42    \nframe=  165 fps=1.1 q=39.5 size=     256KiB time=00:00:02.71 bitrate= 772.1kbits/s speed=0.018x elapsed=0:02:30.94    \nframe=  166 fps=1.1 q=39.3 size=     256KiB time=00:00:02.73 bitrate= 767.4kbits/s speed=0.018x elapsed=0:02:31.46    \nframe=  166 fps=1.1 q=39.3 size=     256KiB time=00:00:02.73 bitrate= 767.4kbits/s speed=0.018x elapsed=0:02:31.97    \nframe=  168 fps=1.1 q=36.9 size=     256KiB time=00:00:02.76 bitrate= 758.1kbits/s speed=0.0181x elapsed=0:02:32.49    \nframe=  169 fps=1.1 q=39.3 size=     256KiB time=00:00:02.78 bitrate= 753.6kbits/s speed=0.0182x elapsed=0:02:33.02    \nframe=  169 fps=1.1 q=39.3 size=     256KiB time=00:00:02.78 bitrate= 753.6kbits/s speed=0.0181x elapsed=0:02:33.54    \nframe=  169 fps=1.1 q=39.3 size=     256KiB time=00:00:02.78 bitrate= 753.6kbits/s speed=0.0181x elapsed=0:02:34.12    \nframe=  169 fps=1.1 q=39.3 size=     256KiB time=00:00:02.78 bitrate= 753.6kbits/s speed=0.018x elapsed=0:02:34.68    \nframe=  169 fps=1.1 q=39.3 size=     256KiB time=00:00:02.78 bitrate= 753.6kbits/s speed=0.0179x elapsed=0:02:35.29    \nframe=  170 fps=1.1 q=39.3 size=     256KiB time=00:00:02.80 bitrate= 749.1kbits/s speed=0.018x elapsed=0:02:35.83    \nframe=  170 fps=1.1 q=39.3 size=     256KiB time=00:00:02.80 bitrate= 749.1kbits/s speed=0.0179x elapsed=0:02:36.35    \nframe=  170 fps=1.1 q=39.3 size=     256KiB time=00:00:02.80 bitrate= 749.1kbits/s speed=0.0178x elapsed=0:02:36.90    \nframe=  170 fps=1.1 q=39.3 size=     256KiB time=00:00:02.80 bitrate= 749.1kbits/s speed=0.0178x elapsed=0:02:37.44    \nframe=  171 fps=1.1 q=34.5 size=     256KiB time=00:00:02.81 bitrate= 744.7kbits/s speed=0.0178x elapsed=0:02:37.96    \nframe=  172 fps=1.1 q=37.0 size=     256KiB time=00:00:02.83 bitrate= 740.3kbits/s speed=0.0179x elapsed=0:02:38.53    \nframe=  172 fps=1.1 q=37.0 size=     256KiB time=00:00:02.83 bitrate= 740.3kbits/s speed=0.0178x elapsed=0:02:39.05    \nframe=  172 fps=1.1 q=37.0 size=     256KiB time=00:00:02.83 bitrate= 740.3kbits/s speed=0.0178x elapsed=0:02:39.57    \nframe=  172 fps=1.1 q=37.0 size=     256KiB time=00:00:02.83 bitrate= 740.3kbits/s speed=0.0177x elapsed=0:02:40.14    \nframe=  172 fps=1.1 q=37.0 size=     256KiB time=00:00:02.83 bitrate= 740.3kbits/s speed=0.0176x elapsed=0:02:40.69    \nframe=  173 fps=1.1 q=40.1 size=     256KiB time=00:00:02.85 bitrate= 736.0kbits/s speed=0.0177x elapsed=0:02:41.21    \nframe=  173 fps=1.1 q=40.1 size=     256KiB time=00:00:02.85 bitrate= 736.0kbits/s speed=0.0176x elapsed=0:02:41.72    \nframe=  174 fps=1.1 q=40.0 size=     256KiB time=00:00:02.86 bitrate= 731.7kbits/s speed=0.0177x elapsed=0:02:42.23    \nframe=  174 fps=1.1 q=40.0 size=     256KiB time=00:00:02.86 bitrate= 731.7kbits/s speed=0.0176x elapsed=0:02:42.76    \nframe=  174 fps=1.1 q=40.0 size=     256KiB time=00:00:02.86 bitrate= 731.7kbits/s speed=0.0176x elapsed=0:02:43.29    \nframe=  175 fps=1.1 q=34.6 size=     256KiB time=00:00:02.88 bitrate= 727.5kbits/s speed=0.0176x elapsed=0:02:43.81    \nframe=  176 fps=1.1 q=37.5 size=     256KiB time=00:00:02.90 bitrate= 723.3kbits/s speed=0.0176x elapsed=0:02:44.35    \nframe=  176 fps=1.1 q=37.5 size=     256KiB time=00:00:02.90 bitrate= 723.3kbits/s speed=0.0176x elapsed=0:02:44.88    \nframe=  176 fps=1.1 q=37.5 size=     256KiB time=00:00:02.90 bitrate= 723.3kbits/s speed=0.0175x elapsed=0:02:45.40    \nframe=  177 fps=1.1 q=40.0 size=     256KiB time=00:00:02.91 bitrate= 719.1kbits/s speed=0.0176x elapsed=0:02:45.96    \nframe=  178 fps=1.1 q=40.2 size=     256KiB time=00:00:02.93 bitrate= 715.1kbits/s speed=0.0176x elapsed=0:02:46.48    \nframe=  179 fps=1.1 q=34.7 size=     256KiB time=00:00:02.95 bitrate= 711.0kbits/s speed=0.0177x elapsed=0:02:47.05    \nframe=  179 fps=1.1 q=34.7 size=     256KiB time=00:00:02.95 bitrate= 711.0kbits/s speed=0.0176x elapsed=0:02:47.59    \nframe=  180 fps=1.1 q=37.6 size=     256KiB time=00:00:02.96 bitrate= 707.0kbits/s speed=0.0176x elapsed=0:02:48.12    \nframe=  180 fps=1.1 q=37.6 size=     256KiB time=00:00:02.96 bitrate= 707.0kbits/s speed=0.0176x elapsed=0:02:48.68    \nframe=  180 fps=1.1 q=37.6 size=     256KiB time=00:00:02.96 bitrate= 707.0kbits/s speed=0.0175x elapsed=0:02:49.22    \nframe=  181 fps=1.1 q=40.0 size=     256KiB time=00:00:02.98 bitrate= 703.1kbits/s speed=0.0176x elapsed=0:02:49.75    \nframe=  181 fps=1.1 q=40.0 size=     256KiB time=00:00:02.98 bitrate= 703.1kbits/s speed=0.0175x elapsed=0:02:50.29    \nframe=  182 fps=1.1 q=40.3 size=     256KiB time=00:00:03.00 bitrate= 699.2kbits/s speed=0.0176x elapsed=0:02:50.81    \nframe=  183 fps=1.1 q=34.9 size=     256KiB time=00:00:03.01 bitrate= 695.3kbits/s speed=0.0176x elapsed=0:02:51.36    \nframe=  183 fps=1.1 q=34.9 size=     256KiB time=00:00:03.01 bitrate= 695.3kbits/s speed=0.0176x elapsed=0:02:51.87    \nframe=  184 fps=1.1 q=37.7 size=     256KiB time=00:00:03.03 bitrate= 691.5kbits/s speed=0.0176x elapsed=0:02:52.39    \nframe=  185 fps=1.1 q=40.2 size=     256KiB time=00:00:03.05 bitrate= 687.7kbits/s speed=0.0176x elapsed=0:02:52.91    \nframe=  185 fps=1.1 q=40.2 size=     256KiB time=00:00:03.05 bitrate= 687.7kbits/s speed=0.0176x elapsed=0:02:53.43    \nframe=  186 fps=1.1 q=40.4 size=     256KiB time=00:00:03.06 bitrate= 684.0kbits/s speed=0.0176x elapsed=0:02:53.98    \nframe=  186 fps=1.1 q=40.4 size=     256KiB time=00:00:03.06 bitrate= 684.0kbits/s speed=0.0176x elapsed=0:02:54.51    \nframe=  187 fps=1.1 q=35.1 size=     256KiB time=00:00:03.08 bitrate= 680.3kbits/s speed=0.0176x elapsed=0:02:55.02    \nframe=  187 fps=1.1 q=35.1 size=     256KiB time=00:00:03.08 bitrate= 680.3kbits/s speed=0.0176x elapsed=0:02:55.55    \nframe=  187 fps=1.1 q=35.1 size=     256KiB time=00:00:03.08 bitrate= 680.3kbits/s speed=0.0175x elapsed=0:02:56.08    \nframe=  188 fps=1.1 q=38.1 size=     256KiB time=00:00:03.10 bitrate= 676.6kbits/s speed=0.0175x elapsed=0:02:56.64    \nframe=  188 fps=1.1 q=38.1 size=     256KiB time=00:00:03.10 bitrate= 676.6kbits/s speed=0.0175x elapsed=0:02:57.18    \nframe=  189 fps=1.1 q=40.3 size=     256KiB time=00:00:03.11 bitrate= 673.0kbits/s speed=0.0175x elapsed=0:02:57.69    \nframe=  190 fps=1.1 q=41.0 size=     256KiB time=00:00:03.13 bitrate= 669.4kbits/s speed=0.0176x elapsed=0:02:58.22    \nframe=  190 fps=1.1 q=41.0 size=     256KiB time=00:00:03.13 bitrate= 669.4kbits/s speed=0.0175x elapsed=0:02:58.75    \nframe=  191 fps=1.1 q=35.4 size=     256KiB time=00:00:03.15 bitrate= 665.9kbits/s speed=0.0176x elapsed=0:02:59.28    \nframe=  191 fps=1.1 q=35.4 size=     256KiB time=00:00:03.15 bitrate= 665.9kbits/s speed=0.0175x elapsed=0:02:59.86    \nframe=  191 fps=1.1 q=35.4 size=     256KiB time=00:00:03.15 bitrate= 665.9kbits/s speed=0.0175x elapsed=0:03:00.44    \nframe=  191 fps=1.1 q=35.4 size=     256KiB time=00:00:03.15 bitrate= 665.9kbits/s speed=0.0174x elapsed=0:03:00.99    \nframe=  191 fps=1.1 q=35.4 size=     256KiB time=00:00:03.15 bitrate= 665.9kbits/s speed=0.0174x elapsed=0:03:01.54    \nframe=  191 fps=1.0 q=35.4 size=     256KiB time=00:00:03.15 bitrate= 665.9kbits/s speed=0.0173x elapsed=0:03:02.09    \nframe=  191 fps=1.0 q=35.4 size=     256KiB time=00:00:03.15 bitrate= 665.9kbits/s speed=0.0172x elapsed=0:03:02.65    \nframe=  191 fps=1.0 q=35.4 size=     256KiB time=00:00:03.15 bitrate= 665.9kbits/s speed=0.0172x elapsed=0:03:03.24    \nframe=  191 fps=1.0 q=35.4 size=     256KiB time=00:00:03.15 bitrate= 665.9kbits/s speed=0.0171x elapsed=0:03:03.86    \nframe=  192 fps=1.0 q=38.0 size=     256KiB time=00:00:03.16 bitrate= 662.4kbits/s speed=0.0172x elapsed=0:03:04.40    \nframe=  192 fps=1.0 q=38.0 size=     256KiB time=00:00:03.16 bitrate= 662.4kbits/s speed=0.0171x elapsed=0:03:04.98    \nframe=  193 fps=1.0 q=41.2 size=     256KiB time=00:00:03.18 bitrate= 658.9kbits/s speed=0.0172x elapsed=0:03:05.50    \nframe=  193 fps=1.0 q=41.2 size=     256KiB time=00:00:03.18 bitrate= 658.9kbits/s speed=0.0171x elapsed=0:03:06.09    \nframe=  193 fps=1.0 q=41.2 size=     256KiB time=00:00:03.18 bitrate= 658.9kbits/s speed=0.0171x elapsed=0:03:06.66    \nframe=  193 fps=1.0 q=41.2 size=     256KiB time=00:00:03.18 bitrate= 658.9kbits/s speed=0.017x elapsed=0:03:07.20    \nframe=  193 fps=1.0 q=41.2 size=     256KiB time=00:00:03.18 bitrate= 658.9kbits/s speed=0.017x elapsed=0:03:07.75    \nframe=  194 fps=1.0 q=41.4 size=     256KiB time=00:00:03.20 bitrate= 655.5kbits/s speed=0.017x elapsed=0:03:08.29    \nframe=  194 fps=1.0 q=41.4 size=     256KiB time=00:00:03.20 bitrate= 655.5kbits/s speed=0.0169x elapsed=0:03:08.80    \nframe=  194 fps=1.0 q=41.4 size=     256KiB time=00:00:03.20 bitrate= 655.5kbits/s speed=0.0169x elapsed=0:03:09.33    \nframe=  195 fps=1.0 q=35.8 size=     256KiB time=00:00:03.21 bitrate= 652.1kbits/s speed=0.0169x elapsed=0:03:09.85    \nframe=  195 fps=1.0 q=35.8 size=     256KiB time=00:00:03.21 bitrate= 652.1kbits/s speed=0.0169x elapsed=0:03:10.37    \nframe=  196 fps=1.0 q=38.5 size=     256KiB time=00:00:03.23 bitrate= 648.7kbits/s speed=0.0169x elapsed=0:03:10.92    \nframe=  198 fps=1.0 q=41.5 size=     256KiB time=00:00:03.26 bitrate= 642.1kbits/s speed=0.0171x elapsed=0:03:11.44    \nframe=  199 fps=1.0 q=35.6 size=     256KiB time=00:00:03.28 bitrate= 638.8kbits/s speed=0.0171x elapsed=0:03:11.95    \nframe=  199 fps=1.0 q=35.6 size=     256KiB time=00:00:03.28 bitrate= 638.8kbits/s speed=0.0171x elapsed=0:03:12.47    \nframe=  200 fps=1.0 q=38.5 size=     256KiB time=00:00:03.30 bitrate= 635.6kbits/s speed=0.0171x elapsed=0:03:12.98    \nframe=  201 fps=1.0 q=41.4 size=     256KiB time=00:00:03.31 bitrate= 632.4kbits/s speed=0.0171x elapsed=0:03:13.51    \nframe=  202 fps=1.0 q=41.3 size=     256KiB time=00:00:03.33 bitrate= 629.3kbits/s speed=0.0172x elapsed=0:03:14.01    \nframe=  204 fps=1.0 q=38.3 size=     256KiB time=00:00:03.36 bitrate= 623.0kbits/s speed=0.0173x elapsed=0:03:14.54    \nframe=  204 fps=1.0 q=38.3 size=     256KiB time=00:00:03.36 bitrate= 623.0kbits/s speed=0.0173x elapsed=0:03:15.05    \nframe=  205 fps=1.0 q=41.6 size=     256KiB time=00:00:03.38 bitrate= 620.0kbits/s speed=0.0173x elapsed=0:03:15.57    \nframe=  206 fps=1.1 q=41.6 size=     256KiB time=00:00:03.40 bitrate= 616.9kbits/s speed=0.0173x elapsed=0:03:16.11    \nframe=  207 fps=1.1 q=36.0 size=     256KiB time=00:00:03.41 bitrate= 613.9kbits/s speed=0.0174x elapsed=0:03:16.65    \nframe=  208 fps=1.1 q=38.9 size=     256KiB time=00:00:03.43 bitrate= 610.9kbits/s speed=0.0174x elapsed=0:03:17.16    \nframe=  209 fps=1.1 q=41.2 size=     256KiB time=00:00:03.45 bitrate= 608.0kbits/s speed=0.0175x elapsed=0:03:17.67    \nframe=  209 fps=1.1 q=41.2 size=     256KiB time=00:00:03.45 bitrate= 608.0kbits/s speed=0.0174x elapsed=0:03:18.21    \nframe=  210 fps=1.1 q=41.1 size=     256KiB time=00:00:03.46 bitrate= 605.0kbits/s speed=0.0174x elapsed=0:03:18.74    \nframe=  211 fps=1.1 q=35.8 size=     256KiB time=00:00:03.48 bitrate= 602.2kbits/s speed=0.0175x elapsed=0:03:19.26    \nframe=  212 fps=1.1 q=38.6 size=     256KiB time=00:00:03.50 bitrate= 599.3kbits/s speed=0.0175x elapsed=0:03:19.79    \nframe=  212 fps=1.1 q=38.6 size=     256KiB time=00:00:03.50 bitrate= 599.3kbits/s speed=0.0175x elapsed=0:03:20.32    \nframe=  212 fps=1.1 q=38.6 size=     256KiB time=00:00:03.50 bitrate= 599.3kbits/s speed=0.0174x elapsed=0:03:20.88    \nframe=  214 fps=1.1 q=41.0 size=     256KiB time=00:00:03.53 bitrate= 593.6kbits/s speed=0.0175x elapsed=0:03:21.39    \nframe=  215 fps=1.1 q=35.5 size=     256KiB time=00:00:03.55 bitrate= 590.8kbits/s speed=0.0176x elapsed=0:03:21.90    \nframe=  216 fps=1.1 q=38.4 size=     256KiB time=00:00:03.56 bitrate= 588.1kbits/s speed=0.0176x elapsed=0:03:22.43    \nframe=  217 fps=1.1 q=40.9 size=     256KiB time=00:00:03.58 bitrate= 585.4kbits/s speed=0.0177x elapsed=0:03:22.98    \nframe=  219 fps=1.1 q=35.7 size=     256KiB time=00:00:03.61 bitrate= 580.0kbits/s speed=0.0178x elapsed=0:03:23.51    \nframe=  219 fps=1.1 q=35.7 size=     256KiB time=00:00:03.61 bitrate= 580.0kbits/s speed=0.0177x elapsed=0:03:24.04    \nframe=  220 fps=1.1 q=38.7 size=     256KiB time=00:00:03.63 bitrate= 577.3kbits/s speed=0.0178x elapsed=0:03:24.55    \nframe=  220 fps=1.1 q=38.7 size=     256KiB time=00:00:03.63 bitrate= 577.3kbits/s speed=0.0177x elapsed=0:03:25.07    \nframe=  221 fps=1.1 q=40.9 size=     256KiB time=00:00:03.65 bitrate= 574.7kbits/s speed=0.0178x elapsed=0:03:25.62    \nframe=  222 fps=1.1 q=41.1 size=     256KiB time=00:00:03.66 bitrate= 572.0kbits/s speed=0.0178x elapsed=0:03:26.14    \nframe=  222 fps=1.1 q=41.1 size=     256KiB time=00:00:03.66 bitrate= 572.0kbits/s speed=0.0177x elapsed=0:03:26.66    \nframe=  223 fps=1.1 q=35.9 size=     256KiB time=00:00:03.68 bitrate= 569.5kbits/s speed=0.0178x elapsed=0:03:27.17    \nframe=  224 fps=1.1 q=38.6 size=     256KiB time=00:00:03.70 bitrate= 566.9kbits/s speed=0.0178x elapsed=0:03:27.68    \nframe=  224 fps=1.1 q=38.6 size=     256KiB time=00:00:03.70 bitrate= 566.9kbits/s speed=0.0178x elapsed=0:03:28.21    \nframe=  225 fps=1.1 q=41.0 size=     256KiB time=00:00:03.71 bitrate= 564.4kbits/s speed=0.0178x elapsed=0:03:28.73    \nframe=  226 fps=1.1 q=41.0 size=     256KiB time=00:00:03.73 bitrate= 561.8kbits/s speed=0.0178x elapsed=0:03:29.25    \nframe=  227 fps=1.1 q=36.3 size=     256KiB time=00:00:03.75 bitrate= 559.3kbits/s speed=0.0179x elapsed=0:03:29.77    \nframe=  227 fps=1.1 q=36.3 size=     256KiB time=00:00:03.75 bitrate= 559.3kbits/s speed=0.0178x elapsed=0:03:30.31    \nframe=  228 fps=1.1 q=38.7 size=     256KiB time=00:00:03.76 bitrate= 556.9kbits/s speed=0.0179x elapsed=0:03:30.86    \nframe=  230 fps=1.1 q=40.8 size=     256KiB time=00:00:03.80 bitrate= 552.0kbits/s speed=0.018x elapsed=0:03:31.38    \nframe=  230 fps=1.1 q=40.8 size=     256KiB time=00:00:03.80 bitrate= 552.0kbits/s speed=0.0179x elapsed=0:03:31.89    \nframe=  230 fps=1.1 q=40.8 size=     256KiB time=00:00:03.80 bitrate= 552.0kbits/s speed=0.0179x elapsed=0:03:32.43    \nframe=  231 fps=1.1 q=36.6 size=     256KiB time=00:00:03.81 bitrate= 549.6kbits/s speed=0.0179x elapsed=0:03:32.97    \nframe=  232 fps=1.1 q=38.9 size=     256KiB time=00:00:03.83 bitrate= 547.2kbits/s speed=0.018x elapsed=0:03:33.49    \nframe=  234 fps=1.1 q=41.0 size=     256KiB time=00:00:03.86 bitrate= 542.5kbits/s speed=0.0181x elapsed=0:03:34.00    \nframe=  234 fps=1.1 q=41.0 size=     256KiB time=00:00:03.86 bitrate= 542.5kbits/s speed=0.018x elapsed=0:03:34.51    \nframe=  234 fps=1.1 q=41.0 size=     256KiB time=00:00:03.86 bitrate= 542.5kbits/s speed=0.018x elapsed=0:03:35.05    \nframe=  236 fps=1.1 q=38.4 size=     256KiB time=00:00:03.90 bitrate= 537.8kbits/s speed=0.0181x elapsed=0:03:35.56    \nframe=  236 fps=1.1 q=38.4 size=     256KiB time=00:00:03.90 bitrate= 537.8kbits/s speed=0.018x elapsed=0:03:36.08    \nframe=  238 fps=1.1 q=41.0 size=     256KiB time=00:00:03.93 bitrate= 533.3kbits/s speed=0.0182x elapsed=0:03:36.61    \nframe=  238 fps=1.1 q=41.0 size=     256KiB time=00:00:03.93 bitrate= 533.3kbits/s speed=0.0181x elapsed=0:03:37.15    \nframe=  240 fps=1.1 q=38.4 size=     256KiB time=00:00:03.96 bitrate= 528.8kbits/s speed=0.0182x elapsed=0:03:37.66    \nframe=  240 fps=1.1 q=38.4 size=     256KiB time=00:00:03.96 bitrate= 528.8kbits/s speed=0.0182x elapsed=0:03:38.17    \nframe=  242 fps=1.1 q=40.8 size=     256KiB time=00:00:04.00 bitrate= 524.4kbits/s speed=0.0183x elapsed=0:03:38.71    \nframe=  242 fps=1.1 q=40.8 size=     256KiB time=00:00:04.00 bitrate= 524.4kbits/s speed=0.0182x elapsed=0:03:39.24    \nframe=  243 fps=1.1 q=36.4 size=     256KiB time=00:00:04.01 bitrate= 522.2kbits/s speed=0.0183x elapsed=0:03:39.76    \nframe=  244 fps=1.1 q=39.3 size=     256KiB time=00:00:04.03 bitrate= 520.0kbits/s speed=0.0183x elapsed=0:03:40.28    \nframe=  245 fps=1.1 q=41.1 size=     256KiB time=00:00:04.05 bitrate= 517.9kbits/s speed=0.0183x elapsed=0:03:40.79    \nframe=  246 fps=1.1 q=40.9 size=     512KiB time=00:00:04.06 bitrate=1031.5kbits/s speed=0.0184x elapsed=0:03:41.32    \nframe=  246 fps=1.1 q=40.9 size=     512KiB time=00:00:04.06 bitrate=1031.5kbits/s speed=0.0183x elapsed=0:03:41.85    \nframe=  248 fps=1.1 q=39.4 size=     512KiB time=00:00:04.10 bitrate=1023.1kbits/s speed=0.0184x elapsed=0:03:42.38    \nframe=  248 fps=1.1 q=39.4 size=     512KiB time=00:00:04.10 bitrate=1023.1kbits/s speed=0.0184x elapsed=0:03:42.91    \nframe=  249 fps=1.1 q=41.1 size=     512KiB time=00:00:04.11 bitrate=1018.9kbits/s speed=0.0184x elapsed=0:03:43.43    \nframe=  250 fps=1.1 q=41.2 size=     512KiB time=00:00:04.13 bitrate=1014.8kbits/s speed=0.0185x elapsed=0:03:43.94    \nframe=  251 fps=1.1 q=31.6 size=     512KiB time=00:00:04.15 bitrate=1010.8kbits/s speed=0.0185x elapsed=0:03:44.45    \nframe=  252 fps=1.1 q=36.3 size=     512KiB time=00:00:04.16 bitrate=1006.7kbits/s speed=0.0185x elapsed=0:03:44.99    \nframe=  253 fps=1.1 q=38.6 size=     512KiB time=00:00:04.18 bitrate=1002.7kbits/s speed=0.0185x elapsed=0:03:45.51    \nframe=  253 fps=1.1 q=38.6 size=     512KiB time=00:00:04.18 bitrate=1002.7kbits/s speed=0.0185x elapsed=0:03:46.04    \nframe=  254 fps=1.1 q=40.3 size=     512KiB time=00:00:04.20 bitrate= 998.7kbits/s speed=0.0185x elapsed=0:03:46.57    \nframe=  254 fps=1.1 q=40.3 size=     512KiB time=00:00:04.20 bitrate= 998.7kbits/s speed=0.0185x elapsed=0:03:47.09    \nframe=  255 fps=1.1 q=40.4 size=     512KiB time=00:00:04.21 bitrate= 994.8kbits/s speed=0.0185x elapsed=0:03:47.62    \nframe=  255 fps=1.1 q=40.4 size=     512KiB time=00:00:04.21 bitrate= 994.8kbits/s speed=0.0185x elapsed=0:03:48.14    \nframe=  255 fps=1.1 q=40.4 size=     512KiB time=00:00:04.21 bitrate= 994.8kbits/s speed=0.0184x elapsed=0:03:48.66    \nframe=  256 fps=1.1 q=36.5 size=     512KiB time=00:00:04.23 bitrate= 990.9kbits/s speed=0.0185x elapsed=0:03:49.20    \nframe=  257 fps=1.1 q=37.5 size=     512KiB time=00:00:04.25 bitrate= 987.0kbits/s speed=0.0185x elapsed=0:03:49.70    \nframe=  257 fps=1.1 q=37.5 size=     512KiB time=00:00:04.25 bitrate= 987.0kbits/s speed=0.0185x elapsed=0:03:50.22    \nframe=  259 fps=1.1 q=40.3 size=     512KiB time=00:00:04.28 bitrate= 979.3kbits/s speed=0.0186x elapsed=0:03:50.74    \nframe=  259 fps=1.1 q=40.3 size=     512KiB time=00:00:04.28 bitrate= 979.3kbits/s speed=0.0185x elapsed=0:03:51.26    \nframe=  259 fps=1.1 q=40.3 size=     512KiB time=00:00:04.28 bitrate= 979.3kbits/s speed=0.0185x elapsed=0:03:51.78    \nframe=  260 fps=1.1 q=40.4 size=     512KiB time=00:00:04.30 bitrate= 975.5kbits/s speed=0.0185x elapsed=0:03:52.30    \nframe=  260 fps=1.1 q=40.4 size=     512KiB time=00:00:04.30 bitrate= 975.5kbits/s speed=0.0185x elapsed=0:03:52.82    \nframe=  261 fps=1.1 q=36.0 size=     512KiB time=00:00:04.31 bitrate= 971.7kbits/s speed=0.0185x elapsed=0:03:53.35    \nframe=  261 fps=1.1 q=36.0 size=     512KiB time=00:00:04.31 bitrate= 971.7kbits/s speed=0.0185x elapsed=0:03:53.87    \nframe=  263 fps=1.1 q=40.0 size=     512KiB time=00:00:04.35 bitrate= 964.3kbits/s speed=0.0186x elapsed=0:03:54.39    \nframe=  263 fps=1.1 q=40.0 size=     512KiB time=00:00:04.35 bitrate= 964.3kbits/s speed=0.0185x elapsed=0:03:54.91    \nframe=  264 fps=1.1 q=40.1 size=     512KiB time=00:00:04.36 bitrate= 960.6kbits/s speed=0.0185x elapsed=0:03:55.42    \nframe=  265 fps=1.1 q=40.5 size=     512KiB time=00:00:04.38 bitrate= 957.0kbits/s speed=0.0186x elapsed=0:03:55.96    \nframe=  266 fps=1.1 q=36.2 size=     512KiB time=00:00:04.40 bitrate= 953.3kbits/s speed=0.0186x elapsed=0:03:56.49    \nframe=  266 fps=1.1 q=36.2 size=     512KiB time=00:00:04.40 bitrate= 953.3kbits/s speed=0.0186x elapsed=0:03:57.02    \nframe=  267 fps=1.1 q=39.5 size=     512KiB time=00:00:04.41 bitrate= 949.7kbits/s speed=0.0186x elapsed=0:03:57.57    \nframe=  268 fps=1.1 q=41.3 size=     512KiB time=00:00:04.43 bitrate= 946.2kbits/s speed=0.0186x elapsed=0:03:58.09    \nframe=  268 fps=1.1 q=41.3 size=     512KiB time=00:00:04.43 bitrate= 946.2kbits/s speed=0.0186x elapsed=0:03:58.63    \nframe=  268 fps=1.1 q=41.3 size=     512KiB time=00:00:04.43 bitrate= 946.2kbits/s speed=0.0185x elapsed=0:03:59.18    \nframe=  269 fps=1.1 q=41.3 size=     512KiB time=00:00:04.45 bitrate= 942.6kbits/s speed=0.0186x elapsed=0:03:59.69    \nframe=  269 fps=1.1 q=41.3 size=     512KiB time=00:00:04.45 bitrate= 942.6kbits/s speed=0.0185x elapsed=0:04:00.21    \nframe=  269 fps=1.1 q=41.3 size=     512KiB time=00:00:04.45 bitrate= 942.6kbits/s speed=0.0185x elapsed=0:04:00.77    \nframe=  270 fps=1.1 q=36.0 size=     512KiB time=00:00:04.46 bitrate= 939.1kbits/s speed=0.0185x elapsed=0:04:01.29    \nframe=  270 fps=1.1 q=36.0 size=     512KiB time=00:00:04.46 bitrate= 939.1kbits/s speed=0.0185x elapsed=0:04:01.83    \nframe=  270 fps=1.1 q=36.0 size=     512KiB time=00:00:04.46 bitrate= 939.1kbits/s speed=0.0184x elapsed=0:04:02.40    \nframe=  270 fps=1.1 q=36.0 size=     512KiB time=00:00:04.46 bitrate= 939.1kbits/s speed=0.0184x elapsed=0:04:02.93    \nframe=  270 fps=1.1 q=36.0 size=     512KiB time=00:00:04.46 bitrate= 939.1kbits/s speed=0.0183x elapsed=0:04:03.47    \nframe=  270 fps=1.1 q=36.0 size=     512KiB time=00:00:04.46 bitrate= 939.1kbits/s speed=0.0183x elapsed=0:04:03.99    \nframe=  271 fps=1.1 q=38.2 size=     512KiB time=00:00:04.48 bitrate= 935.6kbits/s speed=0.0183x elapsed=0:04:04.51    \nframe=  272 fps=1.1 q=40.2 size=     512KiB time=00:00:04.50 bitrate= 932.1kbits/s speed=0.0184x elapsed=0:04:05.07    \nframe=  272 fps=1.1 q=40.2 size=     512KiB time=00:00:04.50 bitrate= 932.1kbits/s speed=0.0183x elapsed=0:04:05.61    \nframe=  272 fps=1.1 q=40.2 size=     512KiB time=00:00:04.50 bitrate= 932.1kbits/s speed=0.0183x elapsed=0:04:06.13    \nframe=  273 fps=1.1 q=40.2 size=     512KiB time=00:00:04.51 bitrate= 928.7kbits/s speed=0.0183x elapsed=0:04:06.64    \nframe=  273 fps=1.1 q=40.2 size=     512KiB time=00:00:04.51 bitrate= 928.7kbits/s speed=0.0183x elapsed=0:04:07.15    \nframe=  274 fps=1.1 q=40.2 size=     512KiB time=00:00:04.53 bitrate= 925.3kbits/s speed=0.0183x elapsed=0:04:07.67    \nframe=  274 fps=1.1 q=40.2 size=     512KiB time=00:00:04.53 bitrate= 925.3kbits/s speed=0.0183x elapsed=0:04:08.20    \nframe=  274 fps=1.1 q=40.2 size=     512KiB time=00:00:04.53 bitrate= 925.3kbits/s speed=0.0182x elapsed=0:04:08.76    \nframe=  274 fps=1.1 q=40.2 size=     512KiB time=00:00:04.53 bitrate= 925.3kbits/s speed=0.0182x elapsed=0:04:09.34    \nframe=  275 fps=1.1 q=35.8 size=     512KiB time=00:00:04.55 bitrate= 921.9kbits/s speed=0.0182x elapsed=0:04:09.89    \nframe=  275 fps=1.1 q=35.8 size=     512KiB time=00:00:04.55 bitrate= 921.9kbits/s speed=0.0182x elapsed=0:04:10.43    \nframe=  275 fps=1.1 q=35.8 size=     512KiB time=00:00:04.55 bitrate= 921.9kbits/s speed=0.0181x elapsed=0:04:10.95    \nframe=  275 fps=1.1 q=35.8 size=     512KiB time=00:00:04.55 bitrate= 921.9kbits/s speed=0.0181x elapsed=0:04:11.48    \nframe=  275 fps=1.1 q=35.8 size=     512KiB time=00:00:04.55 bitrate= 921.9kbits/s speed=0.0181x elapsed=0:04:12.01    \nframe=  275 fps=1.1 q=35.8 size=     512KiB time=00:00:04.55 bitrate= 921.9kbits/s speed=0.018x elapsed=0:04:12.57    \nframe=  275 fps=1.1 q=35.8 size=     512KiB time=00:00:04.55 bitrate= 921.9kbits/s speed=0.018x elapsed=0:04:13.12    \nframe=  275 fps=1.1 q=35.8 size=     512KiB time=00:00:04.55 bitrate= 921.9kbits/s speed=0.0179x elapsed=0:04:13.66    \nframe=  275 fps=1.1 q=35.8 size=     512KiB time=00:00:04.55 bitrate= 921.9kbits/s speed=0.0179x elapsed=0:04:14.21    \nframe=  276 fps=1.1 q=39.2 size=     512KiB time=00:00:04.56 bitrate= 918.5kbits/s speed=0.0179x elapsed=0:04:14.85    \nframe=  277 fps=1.1 q=41.3 size=     512KiB time=00:00:04.58 bitrate= 915.2kbits/s speed=0.0179x elapsed=0:04:15.44    \nframe=  277 fps=1.1 q=41.3 size=     512KiB time=00:00:04.58 bitrate= 915.2kbits/s speed=0.0179x elapsed=0:04:15.98    \nframe=  277 fps=1.1 q=41.3 size=     512KiB time=00:00:04.58 bitrate= 915.2kbits/s speed=0.0179x elapsed=0:04:16.52    \nframe=  277 fps=1.1 q=41.3 size=     512KiB time=00:00:04.58 bitrate= 915.2kbits/s speed=0.0178x elapsed=0:04:17.10    \nframe=  278 fps=1.1 q=41.4 size=     512KiB time=00:00:04.60 bitrate= 911.9kbits/s speed=0.0179x elapsed=0:04:17.62    \nframe=  278 fps=1.1 q=41.4 size=     512KiB time=00:00:04.60 bitrate= 911.9kbits/s speed=0.0178x elapsed=0:04:18.14    \nframe=  278 fps=1.1 q=41.4 size=     512KiB time=00:00:04.60 bitrate= 911.9kbits/s speed=0.0178x elapsed=0:04:18.68    \nframe=  279 fps=1.1 q=35.4 size=     512KiB time=00:00:04.61 bitrate= 908.6kbits/s speed=0.0178x elapsed=0:04:19.20    \nframe=  280 fps=1.1 q=38.6 size=     512KiB time=00:00:04.63 bitrate= 905.3kbits/s speed=0.0178x elapsed=0:04:19.72    \nframe=  283 fps=1.1 q=40.9 size=     512KiB time=00:00:04.68 bitrate= 895.7kbits/s speed=0.018x elapsed=0:04:20.25    \nframe=  283 fps=1.1 q=40.9 size=     512KiB time=00:00:04.68 bitrate= 895.7kbits/s speed=0.018x elapsed=0:04:20.80    \nframe=  283 fps=1.1 q=40.9 size=     512KiB time=00:00:04.68 bitrate= 895.7kbits/s speed=0.0179x elapsed=0:04:21.34    \nframe=  284 fps=1.1 q=35.2 size=     512KiB time=00:00:04.70 bitrate= 892.5kbits/s speed=0.0179x elapsed=0:04:21.89    \nframe=  286 fps=1.1 q=41.2 size=     512KiB time=00:00:04.73 bitrate= 886.2kbits/s speed=0.018x elapsed=0:04:22.40    \nframe=  287 fps=1.1 q=41.0 size=     512KiB time=00:00:04.75 bitrate= 883.1kbits/s speed=0.0181x elapsed=0:04:22.92    \nframe=  287 fps=1.1 q=41.0 size=     512KiB time=00:00:04.75 bitrate= 883.1kbits/s speed=0.018x elapsed=0:04:23.45    \nframe=  287 fps=1.1 q=41.0 size=     512KiB time=00:00:04.75 bitrate= 883.1kbits/s speed=0.018x elapsed=0:04:23.99    \nframe=  287 fps=1.1 q=41.0 size=     512KiB time=00:00:04.75 bitrate= 883.1kbits/s speed=0.018x elapsed=0:04:24.53    \nframe=  287 fps=1.1 q=41.0 size=     512KiB time=00:00:04.75 bitrate= 883.1kbits/s speed=0.0179x elapsed=0:04:25.06    \nframe=  288 fps=1.1 q=35.6 size=     512KiB time=00:00:04.76 bitrate= 880.0kbits/s speed=0.0179x elapsed=0:04:25.57    \nframe=  288 fps=1.1 q=35.6 size=     512KiB time=00:00:04.76 bitrate= 880.0kbits/s speed=0.0179x elapsed=0:04:26.09    \nframe=  288 fps=1.1 q=35.6 size=     512KiB time=00:00:04.76 bitrate= 880.0kbits/s speed=0.0179x elapsed=0:04:26.62    \nframe=  288 fps=1.1 q=35.6 size=     512KiB time=00:00:04.76 bitrate= 880.0kbits/s speed=0.0178x elapsed=0:04:27.16    \nframe=  288 fps=1.1 q=35.6 size=     512KiB time=00:00:04.76 bitrate= 880.0kbits/s speed=0.0178x elapsed=0:04:27.68    \nframe=  289 fps=1.1 q=38.8 size=     512KiB time=00:00:04.78 bitrate= 876.9kbits/s speed=0.0178x elapsed=0:04:28.22    \nframe=  289 fps=1.1 q=38.8 size=     512KiB time=00:00:04.78 bitrate= 876.9kbits/s speed=0.0178x elapsed=0:04:28.76    \nframe=  291 fps=1.1 q=40.7 size=     512KiB time=00:00:04.81 bitrate= 870.9kbits/s speed=0.0179x elapsed=0:04:29.30    \nframe=  291 fps=1.1 q=40.7 size=     512KiB time=00:00:04.81 bitrate= 870.9kbits/s speed=0.0179x elapsed=0:04:29.82    \nframe=  291 fps=1.1 q=40.7 size=     512KiB time=00:00:04.81 bitrate= 870.9kbits/s speed=0.0178x elapsed=0:04:30.37    \nframe=  291 fps=1.1 q=40.7 size=     512KiB time=00:00:04.81 bitrate= 870.9kbits/s speed=0.0178x elapsed=0:04:30.93    \nframe=  292 fps=1.1 q=41.4 size=     512KiB time=00:00:04.81 bitrate= 870.9kbits/s speed=0.0177x elapsed=0:04:31.47    \nframe=  292 fps=1.1 q=41.4 size=     512KiB time=00:00:04.83 bitrate= 867.9kbits/s speed=0.0178x elapsed=0:04:32.02    \nframe=  293 fps=1.1 q=36.6 size=     512KiB time=00:00:04.85 bitrate= 864.9kbits/s speed=0.0178x elapsed=0:04:32.55    \nframe=  294 fps=1.1 q=40.5 size=     512KiB time=00:00:04.86 bitrate= 861.9kbits/s speed=0.0178x elapsed=0:04:33.08    \nframe=  294 fps=1.1 q=40.5 size=     512KiB time=00:00:04.86 bitrate= 861.9kbits/s speed=0.0178x elapsed=0:04:33.61    \nframe=  294 fps=1.1 q=40.5 size=     512KiB time=00:00:04.86 bitrate= 861.9kbits/s speed=0.0178x elapsed=0:04:34.13    \nframe=  294 fps=1.1 q=40.5 size=     512KiB time=00:00:04.86 bitrate= 861.9kbits/s speed=0.0177x elapsed=0:04:34.68    \nframe=  296 fps=1.1 q=42.4 size=     512KiB time=00:00:04.90 bitrate= 856.1kbits/s speed=0.0178x elapsed=0:04:35.20    \nframe=  297 fps=1.1 q=36.9 size=     512KiB time=00:00:04.91 bitrate= 853.2kbits/s speed=0.0178x elapsed=0:04:35.77    \nframe=  298 fps=1.1 q=51.0 size=     512KiB time=00:00:04.93 bitrate= 850.3kbits/s speed=0.0179x elapsed=0:04:36.28    \nframe=  299 fps=1.1 q=50.9 size=     512KiB time=00:00:04.95 bitrate= 847.4kbits/s speed=0.0179x elapsed=0:04:36.80    \n[mp4 @ 000001ca21951200] Starting second pass: moving the moov atom to the beginning of the file\n[out#0/mp4 @ 000001ca2194abc0] video:636KiB audio:0KiB subtitle:0KiB other streams:0KiB global headers:2KiB muxing overhead: 1.079448%\nframe=  300 fps=1.1 q=42.6 Lsize=     642KiB time=00:00:04.96 bitrate=1059.7kbits/s speed=0.0179x elapsed=0:04:37.32    \nx265 [info]: frame I:      2, Avg QP:37.73  kb/s: 2909.04 \nx265 [info]: frame P:     67, Avg QP:35.08  kb/s: 2478.46 \nx265 [info]: frame B:    231, Avg QP:39.32  kb/s: 605.95  \nx265 [info]: Weighted P-Frames: Y:0.0% UV:0.0%\n\nencoded 300 frames in 277.26s (1.08 fps), 1039.50 kb/s, Avg QP:38.36\n",
  "seconds": 277.9941051006317,
  "probe_out": {}
}